<svg xmlns="http://www.w3.org/2000/svg" width="1200" height="800" viewBox="0 0 1200 800">
<defs><linearGradient id="g" x2="1" y2="1"><stop stop-color="#ec4899"/><stop offset="1" stop-color="#8b5cf6"/></linearGradient></defs>
<rect width="1200" height="800" fill="url(#g)"/><g fill="#fef3c7"><circle cx="120" cy="140" r="22"/><circle cx="250" cy="260" r="15"/><circle cx="1060" cy="170" r="24"/><circle cx="910" cy="310" r="14"/></g><path d="M350 570h500l-45-250H395z" fill="#fef3c7"/><path d="M330 570h540v55H330z" fill="#fb7185"/><g fill="#fde047"><rect x="475" y="220" width="25" height="105" rx="12"/><rect x="588" y="185" width="25" height="140" rx="12"/><rect x="700" y="220" width="25" height="105" rx="12"/></g><g fill="#fff"><path d="M487 202l-12-25 12-25 12 25z"/><path d="M600 167l-12-25 12-25 12 25z"/><path d="M712 202l-12-25 12-25 12 25z"/></g><text x="600" y="735" text-anchor="middle" fill="white" font-family="Georgia" font-size="52">HAPPY BIRTHDAY</text>
</svg>
